{
	"asset":{
		"generator":"Khronos glTF Blender I/O v3.5.30",
		"version":"2.0"
	},
	"scene":0,
	"scenes":[
		{
			"name":"Scene",
			"nodes":[
				14
			]
		}
	],
	"nodes":[
		{
			"name":"Bone.003",
			"rotation":[
				-0.2731853127479553,
				-0.004293333273380995,
				0.010930812917649746,
				0.9618897438049316
			],
			"scale":[
				0.9999999403953552,
				1.0000001192092896,
				1.0000001192092896
			],
			"translation":[
				9.89530235528946e-09,
				1.6240772008895874,
				-1.257521944353357e-07
			]
		},
		{
			"children":[
				0
			],
			"name":"Bone.002",
			"rotation":[
				0.48201555013656616,
				0.527586042881012,
				-0.48319751024246216,
				0.5058005452156067
			],
			"scale":[
				1.0000001192092896,
				1.000000238418579,
				1.0000001192092896
			],
			"translation":[
				3.3278411137871444e-09,
				0.7293403744697571,
				-1.9281287677586079e-10
			]
		},
		{
			"name":"Bone.006",
			"rotation":[
				0.09492634236812592,
				0.850862443447113,
				-0.27383604645729065,
				0.4382190704345703
			],
			"scale":[
				0.9999998211860657,
				0.9999997019767761,
				0.9999999403953552
			],
			"translation":[
				-1.1222437024116516e-07,
				1.6332145929336548,
				-4.237517714500427e-08
			]
		},
		{
			"children":[
				2
			],
			"name":"Bone.005",
			"rotation":[
				0.24739399552345276,
				-0.26227137446403503,
				0.6483961343765259,
				0.6705165505409241
			],
			"scale":[
				0.9999998807907104,
				0.9999998211860657,
				0.9999999403953552
			],
			"translation":[
				3.3278411137871444e-09,
				0.7293403744697571,
				-1.9281287677586079e-10
			]
		},
		{
			"name":"Bone.007",
			"rotation":[
				-0.2363855242729187,
				-0.4340854287147522,
				0.13708922266960144,
				0.8584278225898743
			],
			"scale":[
				0.9999998211860657,
				0.9999998807907104,
				0.9999998807907104
			],
			"translation":[
				1.862645149230957e-09,
				1.6017708778381348,
				-1.778826117515564e-07
			]
		},
		{
			"children":[
				4
			],
			"name":"Bone.004",
			"rotation":[
				-0.035855963826179504,
				0.7362340092658997,
				-0.6743502616882324,
				0.04388221725821495
			],
			"scale":[
				1,
				0.9999995827674866,
				1
			],
			"translation":[
				3.3278411137871444e-09,
				0.7293403744697571,
				-1.9281287677586079e-10
			]
		},
		{
			"name":"Bone.009",
			"rotation":[
				0.045276716351509094,
				0.19915279746055603,
				-0.2857229709625244,
				0.9362962245941162
			],
			"scale":[
				1,
				0.9999999403953552,
				1
			],
			"translation":[
				-1.2456439435482025e-07,
				1.60179603099823,
				-9.313225746154785e-10
			]
		},
		{
			"children":[
				6
			],
			"name":"Bone.008",
			"rotation":[
				0.5037304759025574,
				0.5000768303871155,
				0.48698869347572327,
				0.5089409351348877
			],
			"scale":[
				1.0000001192092896,
				1.0000001192092896,
				1.000000238418579
			],
			"translation":[
				3.3278411137871444e-09,
				0.7293403744697571,
				-1.9281287677586079e-10
			]
		},
		{
			"children":[
				1,
				3,
				5,
				7
			],
			"name":"center",
			"rotation":[
				0.7070114612579346,
				0.0067589664831757545,
				-0.7071374654769897,
				0.006759744603186846
			],
			"scale":[
				1,
				1.0000001192092896,
				1.0000001192092896
			],
			"translation":[
				-0.13202276825904846,
				0.4770691394805908,
				-0.059270814061164856
			]
		},
		{
			"mesh":0,
			"name":"Cube",
			"skin":0
		},
		{
			"mesh":1,
			"name":"Cube.001",
			"skin":0
		},
		{
			"mesh":2,
			"name":"Cube.002",
			"skin":0
		},
		{
			"mesh":3,
			"name":"Cube.003",
			"skin":0
		},
		{
			"mesh":4,
			"name":"Cube.004",
			"skin":0
		},
		{
			"children":[
				9,
				10,
				11,
				12,
				13,
				8
			],
			"name":"Armature",
			"translation":[
				0.09275197982788086,
				1.9874072074890137,
				-0.04733458161354065
			]
		}
	],
	"materials":[
		{
			"doubleSided":true,
			"name":"Material",
			"pbrMetallicRoughness":{
				"baseColorFactor":[
					0.800000011920929,
					0.800000011920929,
					0.800000011920929,
					1
				],
				"metallicFactor":0,
				"roughnessFactor":0.5
			}
		},
		{
			"doubleSided":true,
			"name":"Material.002",
			"pbrMetallicRoughness":{
				"baseColorFactor":[
					0.800000011920929,
					0.800000011920929,
					0.800000011920929,
					1
				],
				"metallicFactor":0,
				"roughnessFactor":0.5
			}
		},
		{
			"doubleSided":true,
			"name":"Material.003",
			"pbrMetallicRoughness":{
				"baseColorFactor":[
					0.800000011920929,
					0.800000011920929,
					0.800000011920929,
					1
				],
				"metallicFactor":0,
				"roughnessFactor":0.5
			}
		},
		{
			"doubleSided":true,
			"name":"Material.004",
			"pbrMetallicRoughness":{
				"baseColorFactor":[
					0.800000011920929,
					0.800000011920929,
					0.800000011920929,
					1
				],
				"metallicFactor":0,
				"roughnessFactor":0.5
			}
		}
	],
	"meshes":[
		{
			"name":"Cube",
			"primitives":[
				{
					"attributes":{
						"POSITION":0,
						"TEXCOORD_0":1,
						"NORMAL":2,
						"JOINTS_0":3,
						"WEIGHTS_0":4
					},
					"indices":5,
					"material":0
				}
			]
		},
		{
			"name":"Cube.002",
			"primitives":[
				{
					"attributes":{
						"POSITION":7,
						"TEXCOORD_0":8,
						"NORMAL":9,
						"JOINTS_0":10,
						"WEIGHTS_0":11
					},
					"indices":12,
					"material":1
				}
			]
		},
		{
			"name":"Cube.003",
			"primitives":[
				{
					"attributes":{
						"POSITION":13,
						"TEXCOORD_0":14,
						"NORMAL":15,
						"JOINTS_0":16,
						"WEIGHTS_0":17
					},
					"indices":18,
					"material":2
				}
			]
		},
		{
			"name":"Cube.004",
			"primitives":[
				{
					"attributes":{
						"POSITION":19,
						"TEXCOORD_0":20,
						"NORMAL":21,
						"JOINTS_0":22,
						"WEIGHTS_0":23
					},
					"indices":24,
					"material":3
				}
			]
		},
		{
			"name":"Cube.005",
			"primitives":[
				{
					"attributes":{
						"POSITION":25,
						"TEXCOORD_0":26,
						"NORMAL":27,
						"JOINTS_0":28,
						"WEIGHTS_0":29
					},
					"indices":30
				}
			]
		}
	],
	"skins":[
		{
			"inverseBindMatrices":6,
			"joints":[
				8,
				1,
				0,
				3,
				2,
				5,
				4,
				7,
				6
			],
			"name":"Armature"
		}
	],
	"accessors":[
		{
			"bufferView":0,
			"componentType":5126,
			"count":64,
			"max":[
				0.528267502784729,
				1.9998317956924438,
				-0.282298743724823
			],
			"min":[
				-0.48985180258750916,
				1.051498293876648,
				-2.402714729309082
			],
			"type":"VEC3"
		},
		{
			"bufferView":1,
			"componentType":5126,
			"count":64,
			"type":"VEC2"
		},
		{
			"bufferView":2,
			"componentType":5126,
			"count":64,
			"type":"VEC3"
		},
		{
			"bufferView":3,
			"componentType":5121,
			"count":64,
			"type":"VEC4"
		},
		{
			"bufferView":4,
			"componentType":5126,
			"count":64,
			"type":"VEC4"
		},
		{
			"bufferView":5,
			"componentType":5123,
			"count":108,
			"type":"SCALAR"
		},
		{
			"bufferView":6,
			"componentType":5126,
			"count":9,
			"type":"MAT4"
		},
		{
			"bufferView":7,
			"componentType":5126,
			"count":64,
			"max":[
				-0.22117769718170166,
				2.0064873695373535,
				0.39195024967193604
			],
			"min":[
				-2.3415937423706055,
				1.058153510093689,
				-0.6261690855026245
			],
			"type":"VEC3"
		},
		{
			"bufferView":8,
			"componentType":5126,
			"count":64,
			"type":"VEC2"
		},
		{
			"bufferView":9,
			"componentType":5126,
			"count":64,
			"type":"VEC3"
		},
		{
			"bufferView":10,
			"componentType":5121,
			"count":64,
			"type":"VEC4"
		},
		{
			"bufferView":11,
			"componentType":5126,
			"count":64,
			"type":"VEC4"
		},
		{
			"bufferView":12,
			"componentType":5123,
			"count":108,
			"type":"SCALAR"
		},
		{
			"bufferView":13,
			"componentType":5126,
			"count":64,
			"max":[
				2.3518788814544678,
				2.0064873695373535,
				0.40995126962661743
			],
			"min":[
				0.23146283626556396,
				1.058153510093689,
				-0.6081680655479431
			],
			"type":"VEC3"
		},
		{
			"bufferView":14,
			"componentType":5126,
			"count":64,
			"type":"VEC2"
		},
		{
			"bufferView":15,
			"componentType":5126,
			"count":64,
			"type":"VEC3"
		},
		{
			"bufferView":16,
			"componentType":5121,
			"count":64,
			"type":"VEC4"
		},
		{
			"bufferView":17,
			"componentType":5126,
			"count":64,
			"type":"VEC4"
		},
		{
			"bufferView":18,
			"componentType":5123,
			"count":108,
			"type":"SCALAR"
		},
		{
			"bufferView":19,
			"componentType":5126,
			"count":64,
			"max":[
				0.5102666020393372,
				2.0070078372955322,
				2.2851948738098145
			],
			"min":[
				-0.5078529715538025,
				1.0586739778518677,
				0.16477887332439423
			],
			"type":"VEC3"
		},
		{
			"bufferView":20,
			"componentType":5126,
			"count":64,
			"type":"VEC2"
		},
		{
			"bufferView":21,
			"componentType":5126,
			"count":64,
			"type":"VEC3"
		},
		{
			"bufferView":22,
			"componentType":5121,
			"count":64,
			"type":"VEC4"
		},
		{
			"bufferView":23,
			"componentType":5126,
			"count":64,
			"type":"VEC4"
		},
		{
			"bufferView":24,
			"componentType":5123,
			"count":108,
			"type":"SCALAR"
		},
		{
			"bufferView":25,
			"componentType":5126,
			"count":112,
			"max":[
				0.30871349573135376,
				2.5976014137268066,
				0.21296457946300507
			],
			"min":[
				-0.2972736060619354,
				1.9756227731704712,
				-0.41786453127861023
			],
			"type":"VEC3"
		},
		{
			"bufferView":26,
			"componentType":5126,
			"count":112,
			"type":"VEC2"
		},
		{
			"bufferView":27,
			"componentType":5126,
			"count":112,
			"type":"VEC3"
		},
		{
			"bufferView":28,
			"componentType":5121,
			"count":112,
			"type":"VEC4"
		},
		{
			"bufferView":29,
			"componentType":5126,
			"count":112,
			"type":"VEC4"
		},
		{
			"bufferView":30,
			"componentType":5123,
			"count":156,
			"type":"SCALAR"
		}
	],
	"bufferViews":[
		{
			"buffer":0,
			"byteLength":768,
			"byteOffset":0,
			"target":34962
		},
		{
			"buffer":0,
			"byteLength":512,
			"byteOffset":768,
			"target":34962
		},
		{
			"buffer":0,
			"byteLength":768,
			"byteOffset":1280,
			"target":34962
		},
		{
			"buffer":0,
			"byteLength":256,
			"byteOffset":2048,
			"target":34962
		},
		{
			"buffer":0,
			"byteLength":1024,
			"byteOffset":2304,
			"target":34962
		},
		{
			"buffer":0,
			"byteLength":216,
			"byteOffset":3328,
			"target":34963
		},
		{
			"buffer":0,
			"byteLength":576,
			"byteOffset":3544
		},
		{
			"buffer":0,
			"byteLength":768,
			"byteOffset":4120,
			"target":34962
		},
		{
			"buffer":0,
			"byteLength":512,
			"byteOffset":4888,
			"target":34962
		},
		{
			"buffer":0,
			"byteLength":768,
			"byteOffset":5400,
			"target":34962
		},
		{
			"buffer":0,
			"byteLength":256,
			"byteOffset":6168,
			"target":34962
		},
		{
			"buffer":0,
			"byteLength":1024,
			"byteOffset":6424,
			"target":34962
		},
		{
			"buffer":0,
			"byteLength":216,
			"byteOffset":7448,
			"target":34963
		},
		{
			"buffer":0,
			"byteLength":768,
			"byteOffset":7664,
			"target":34962
		},
		{
			"buffer":0,
			"byteLength":512,
			"byteOffset":8432,
			"target":34962
		},
		{
			"buffer":0,
			"byteLength":768,
			"byteOffset":8944,
			"target":34962
		},
		{
			"buffer":0,
			"byteLength":256,
			"byteOffset":9712,
			"target":34962
		},
		{
			"buffer":0,
			"byteLength":1024,
			"byteOffset":9968,
			"target":34962
		},
		{
			"buffer":0,
			"byteLength":216,
			"byteOffset":10992,
			"target":34963
		},
		{
			"buffer":0,
			"byteLength":768,
			"byteOffset":11208,
			"target":34962
		},
		{
			"buffer":0,
			"byteLength":512,
			"byteOffset":11976,
			"target":34962
		},
		{
			"buffer":0,
			"byteLength":768,
			"byteOffset":12488,
			"target":34962
		},
		{
			"buffer":0,
			"byteLength":256,
			"byteOffset":13256,
			"target":34962
		},
		{
			"buffer":0,
			"byteLength":1024,
			"byteOffset":13512,
			"target":34962
		},
		{
			"buffer":0,
			"byteLength":216,
			"byteOffset":14536,
			"target":34963
		},
		{
			"buffer":0,
			"byteLength":1344,
			"byteOffset":14752,
			"target":34962
		},
		{
			"buffer":0,
			"byteLength":896,
			"byteOffset":16096,
			"target":34962
		},
		{
			"buffer":0,
			"byteLength":1344,
			"byteOffset":16992,
			"target":34962
		},
		{
			"buffer":0,
			"byteLength":448,
			"byteOffset":18336,
			"target":34962
		},
		{
			"buffer":0,
			"byteLength":1792,
			"byteOffset":18784,
			"target":34962
		},
		{
			"buffer":0,
			"byteLength":312,
			"byteOffset":20576,
			"target":34963
		}
	],
	"buffers":[
		{
			"byteLength":20888,
			"uri":"data:application/octet-stream;base64,"
		}
	]
}
